<svg xmlns="http://www.w3.org/2000/svg" width="203.424" height="47.774" viewBox="0 0 203.424 47.774">
  <g id="Group_6" data-name="Group 6" transform="translate(-104.166 -253.594)">
    <path id="Path_1" data-name="Path 1" d="M257.266,106.035c.988,4.8-.809,9.227-4.014,9.887s-6.605-2.7-7.594-7.5.809-9.226,4.015-9.885S256.277,101.236,257.266,106.035Z" transform="translate(-128.754 155.45)" fill="#fff"/>
    <path id="Path_2" data-name="Path 2" d="M224.549,136.7c1.72,4.182.78,8.533-2.1,9.717s-6.61-1.244-8.33-5.426-.778-8.532,2.1-9.717S222.829,132.518,224.549,136.7Z" transform="translate(-109.091 135.551)" fill="#fff"/>
    <path id="Path_3" data-name="Path 3" d="M296.684,106.035c-.988,4.8.809,9.227,4.014,9.887s6.605-2.7,7.593-7.5-.809-9.226-4.014-9.885S297.672,101.236,296.684,106.035Z" transform="translate(-159.981 155.45)" fill="#fff"/>
    <path id="Path_4" data-name="Path 4" d="M329.4,136.7c-1.72,4.182-.779,8.533,2.1,9.717s6.611-1.244,8.33-5.426.779-8.532-2.1-9.717S331.119,132.518,329.4,136.7Z" transform="translate(-179.642 135.551)" fill="#fff"/>
    <path id="Path_5" data-name="Path 5" d="M244.193,175.853a6.048,6.048,0,0,1-6.274-6.378c0-5.332,7.319-21.12,19.03-21.12s19.029,15.788,19.029,21.12a6.049,6.049,0,0,1-6.273,6.378c-9.389,0-7.11-7.967-7.11-7.967s3.943.25,4.492-2.5a.612.612,0,0,0,.63-.684c-.057-.682-1.363-1.847-1.25-3.068s.426-2.841-2.6-4.588-3.508-4.674-3.125-5.682a4.806,4.806,0,0,0-3.48,4.588s-3.377.337-4.745,4.762S250.295,175.853,244.193,175.853Z" transform="translate(-124.184 124.913)" fill="#fff"/>
    <g id="Group_4" data-name="Group 4" transform="translate(169.873 253.594)">
      <g id="Group_2" data-name="Group 2">
        <g id="Group_1" data-name="Group 1">
          <text id="tus_patitas" data-name="tus patitas" transform="translate(68 33)" fill="#fff" font-size="37" font-family="BebasNeue, Bebas Neue"><tspan x="-67.729" y="0">tus patitas</tspan></text>
        </g>
      </g>
      <text id="CUIDADOS_CON_AMOR_DE_FAMILIA" data-name="CUIDADOS CON AMOR DE FAMILIA" transform="translate(69.716 45.774)" fill="#fff" font-size="10" font-family="RobotoCondensed-Bold, Roboto Condensed" font-weight="700" letter-spacing="-0.017em"><tspan x="-67.263" y="0">CUIDADOS CON AMOR DE FAMILIA</tspan></text>
    </g>
  </g>
</svg>
