<svg xmlns="http://www.w3.org/2000/svg" viewBox="0 0 221.73 46.87"><defs><style>.cls-1{isolation:isolate;}</style></defs><g id="Layer_2" data-name="Layer 2"><g id="Layer_1-2" data-name="Layer 1"><g id="Group_23" data-name="Group 23"><path id="Path_1" data-name="Path 1" d="M24.34,7.58c1,4.8-.81,9.23-4,9.89s-6.61-2.7-7.59-7.5.8-9.23,4-9.89S23.35,2.78,24.34,7.58Z"/><path id="Path_2" data-name="Path 2" d="M11.29,18.35c1.72,4.18.78,8.53-2.1,9.71S2.58,26.82.86,22.64.08,14.11,3,12.92,9.57,14.16,11.29,18.35Z"/><path id="Path_3" data-name="Path 3" d="M32.53,7.58c-1,4.8.81,9.23,4,9.89s6.6-2.7,7.59-7.5-.81-9.23-4-9.89S33.52,2.78,32.53,7.58Z"/><path id="Path_4" data-name="Path 4" d="M45.59,18.35c-1.72,4.18-.78,8.53,2.1,9.71S54.3,26.82,56,22.64s.78-8.53-2.1-9.72S47.31,14.16,45.59,18.35Z"/><path id="Path_5" data-name="Path 5" d="M15.84,46.86a6,6,0,0,1-6.28-5.81,5.42,5.42,0,0,1,0-.57c0-5.33,7.32-21.12,19-21.12s19,15.79,19,21.12a6.06,6.06,0,0,1-5.71,6.38h-.57c-9.39,0-7.11-8-7.11-8s3.95.25,4.49-2.5a.61.61,0,0,0,.64-.58.31.31,0,0,0,0-.1c0-.68-1.36-1.85-1.25-3.07s.43-2.84-2.6-4.59-3.5-4.67-3.12-5.68A4.81,4.81,0,0,0,28.91,27s-3.38.34-4.75,4.76S21.94,46.86,15.84,46.86Z"/><g id="Group_4" data-name="Group 4"><g id="Group_2" data-name="Group 2"><g id="Group_1" data-name="Group 1"><g id="tus_patitas" data-name="tus patitas" class="cls-1"><g class="cls-1"><path d="M66.27,6.79H78.85v3.7H74.6v22.2H70.53V10.49H66.27Z"/><path d="M84.51,6.79v20c0,1.85.82,2.52,2.11,2.52s2.11-.67,2.11-2.52v-20h3.85V26.51c0,4.14-2.07,6.51-6.07,6.51s-6.07-2.37-6.07-6.51V6.79Z"/><path d="M100.83,6.49c4,0,6,2.37,6,6.51v.82H103V12.75c0-1.86-.74-2.56-2-2.56s-2,.7-2,2.56.81,3.29,3.47,5.62c3.41,3,4.48,5.14,4.48,8.1,0,4.15-2.07,6.52-6.07,6.52s-6.07-2.37-6.07-6.52V24.88h3.85v1.85c0,1.85.82,2.52,2.11,2.52s2.11-.67,2.11-2.52-.81-3.29-3.48-5.62c-3.4-3-4.48-5.15-4.48-8.11C94.83,8.86,96.87,6.49,100.83,6.49Z"/><path d="M127,13.19v3.37c0,4.14-2,6.4-6.07,6.4H119v9.73h-4.07V6.79h6C125,6.79,127,9.05,127,13.19Zm-8-2.7v8.77h1.92c1.3,0,2-.59,2-2.44V12.93c0-1.85-.7-2.44-2-2.44Z"/><path d="M141.57,32.69h-4.11l-.7-4.7h-5l-.7,4.7h-3.74l4.15-25.9h5.95Zm-9.29-8.22h3.92l-1.92-13.09h-.08Z"/><path d="M140.86,6.79h12.58v3.7h-4.25v22.2h-4.07V10.49h-4.26Z"/><path d="M155.22,6.79h4.07v25.9h-4.07Z"/><path d="M161.06,6.79h12.59v3.7h-4.26v22.2h-4.07V10.49h-4.26Z"/><path d="M187.19,32.69h-4.11l-.7-4.7h-5l-.7,4.7h-3.74l4.15-25.9H183Zm-9.29-8.22h3.92L179.9,11.38h-.08Z"/><path d="M194.55,6.49c4,0,6,2.37,6,6.51v.82H196.7V12.75c0-1.86-.74-2.56-2-2.56s-2,.7-2,2.56.81,3.29,3.47,5.62c3.41,3,4.48,5.14,4.48,8.1,0,4.15-2.07,6.52-6.07,6.52s-6.07-2.37-6.07-6.52V24.88h3.85v1.85c0,1.85.82,2.52,2.11,2.52s2.11-.67,2.11-2.52-.81-3.29-3.48-5.62c-3.4-3-4.48-5.15-4.48-8.11C188.55,8.86,190.59,6.49,194.55,6.49Z"/></g></g></g></g><g id="CUIDADOS_CON_AMOR_DE_FAMILIA" data-name="CUIDADOS CON AMOR DE FAMILIA" class="cls-1"><g class="cls-1"><path d="M74.37,43.1a2.48,2.48,0,0,1-.84,1.8,3,3,0,0,1-2,.66,2.68,2.68,0,0,1-2.15-.92,3.79,3.79,0,0,1-.78-2.53v-.43a4.3,4.3,0,0,1,.36-1.81,2.7,2.7,0,0,1,1-1.2,3.24,3.24,0,0,1,3.54.25,2.6,2.6,0,0,1,.87,1.85H72.92a1.54,1.54,0,0,0-.38-1,1.42,1.42,0,0,0-1-.31,1.23,1.23,0,0,0-1.09.52,2.92,2.92,0,0,0-.38,1.63v.54a3.14,3.14,0,0,0,.35,1.68,1.21,1.21,0,0,0,1.1.53,1.51,1.51,0,0,0,1-.3,1.42,1.42,0,0,0,.38-1Z"/><path d="M80.55,38.35V43a2.42,2.42,0,0,1-.73,1.84,3.29,3.29,0,0,1-4,0,2.38,2.38,0,0,1-.74-1.81V38.35h1.46v4.7a1.31,1.31,0,0,0,.34,1,1.24,1.24,0,0,0,.92.32c.83,0,1.24-.43,1.26-1.29V38.35Z"/><path d="M83.14,45.46H81.67V38.35h1.47Z"/><path d="M84.32,45.46V38.35h2.19a3.26,3.26,0,0,1,1.68.43A2.89,2.89,0,0,1,89.34,40a3.67,3.67,0,0,1,.42,1.77v.32a3.76,3.76,0,0,1-.41,1.77A2.93,2.93,0,0,1,88.2,45a3.23,3.23,0,0,1-1.68.43Zm1.47-5.92v4.75h.71a1.57,1.57,0,0,0,1.31-.57,2.5,2.5,0,0,0,.46-1.6v-.38a2.56,2.56,0,0,0-.45-1.64,1.58,1.58,0,0,0-1.31-.56Z"/><path d="M94.67,44H92.1l-.49,1.46H90.05l2.65-7.11h1.35l2.67,7.11H95.16Zm-2.18-1.19h1.78l-.89-2.66Z"/><path d="M97.21,45.46V38.35H99.4a3.22,3.22,0,0,1,1.67.43,2.92,2.92,0,0,1,1.16,1.2,3.67,3.67,0,0,1,.41,1.77v.32a3.75,3.75,0,0,1-.4,1.77A3,3,0,0,1,101.09,45a3.28,3.28,0,0,1-1.68.43Zm1.46-5.92v4.75h.71a1.59,1.59,0,0,0,1.32-.57,2.56,2.56,0,0,0,.46-1.6v-.38a2.56,2.56,0,0,0-.45-1.64,1.6,1.6,0,0,0-1.31-.56Z"/><path d="M109.38,42.07a4.26,4.26,0,0,1-.37,1.84A2.76,2.76,0,0,1,108,45.13a2.91,2.91,0,0,1-1.59.43,3,3,0,0,1-1.58-.42,2.83,2.83,0,0,1-1.07-1.22,4.3,4.3,0,0,1-.39-1.81v-.35a4.3,4.3,0,0,1,.38-1.85,2.93,2.93,0,0,1,1.07-1.23,3.18,3.18,0,0,1,3.16,0A2.86,2.86,0,0,1,109,39.91a4.29,4.29,0,0,1,.38,1.84Zm-1.49-.32a3,3,0,0,0-.4-1.7,1.28,1.28,0,0,0-1.14-.58,1.32,1.32,0,0,0-1.14.57,3,3,0,0,0-.4,1.68v.35a3,3,0,0,0,.4,1.69,1.3,1.3,0,0,0,1.15.6,1.27,1.27,0,0,0,1.13-.58,3,3,0,0,0,.4-1.69Z"/><path d="M114,43.6a.77.77,0,0,0-.29-.64,4,4,0,0,0-1.06-.47,6.73,6.73,0,0,1-1.2-.48,2,2,0,0,1-1.21-1.77,1.67,1.67,0,0,1,.32-1,2.11,2.11,0,0,1,.93-.71,3.52,3.52,0,0,1,1.37-.25,3.19,3.19,0,0,1,1.35.27,2.24,2.24,0,0,1,.93.78,2.05,2.05,0,0,1,.33,1.14H114a1,1,0,0,0-.3-.76,1.29,1.29,0,0,0-.87-.27,1.36,1.36,0,0,0-.83.23.71.71,0,0,0-.3.6.7.7,0,0,0,.35.58,3.8,3.8,0,0,0,1,.44,4.46,4.46,0,0,1,1.82.93,1.85,1.85,0,0,1,.57,1.39,1.71,1.71,0,0,1-.7,1.45,3,3,0,0,1-1.88.52,3.61,3.61,0,0,1-1.49-.3,2.37,2.37,0,0,1-1-.82,2.07,2.07,0,0,1-.35-1.21h1.47c0,.78.46,1.17,1.4,1.17a1.4,1.4,0,0,0,.82-.21A.7.7,0,0,0,114,43.6Z"/><path d="M124.15,43.1a2.52,2.52,0,0,1-.84,1.8,3,3,0,0,1-2,.66,2.68,2.68,0,0,1-2.15-.92,3.79,3.79,0,0,1-.78-2.53v-.43a4.3,4.3,0,0,1,.36-1.81,2.7,2.7,0,0,1,1-1.2,3.24,3.24,0,0,1,3.54.25,2.68,2.68,0,0,1,.87,1.85H122.7a1.49,1.49,0,0,0-.39-1,1.39,1.39,0,0,0-1-.31,1.25,1.25,0,0,0-1.1.52,3,3,0,0,0-.37,1.63v.54a3.14,3.14,0,0,0,.35,1.68,1.21,1.21,0,0,0,1.1.53,1.47,1.47,0,0,0,1-.3,1.42,1.42,0,0,0,.39-1Z"/><path d="M130.78,42.07a4.26,4.26,0,0,1-.37,1.84,2.7,2.7,0,0,1-1.06,1.22,2.9,2.9,0,0,1-1.58.43,3,3,0,0,1-1.58-.42,2.92,2.92,0,0,1-1.08-1.22,4.15,4.15,0,0,1-.38-1.81v-.35a4.3,4.3,0,0,1,.38-1.85,2.86,2.86,0,0,1,1.07-1.23,3.18,3.18,0,0,1,3.16,0,2.93,2.93,0,0,1,1.07,1.23,4.29,4.29,0,0,1,.37,1.84Zm-1.48-.32a3,3,0,0,0-.4-1.7,1.42,1.42,0,0,0-2.28,0,3,3,0,0,0-.41,1.68v.35a3.08,3.08,0,0,0,.4,1.69,1.31,1.31,0,0,0,1.16.6,1.27,1.27,0,0,0,1.13-.58,3,3,0,0,0,.4-1.69Z"/><path d="M137.46,45.46H136l-2.85-4.67v4.67h-1.46V38.35h1.46L136,43V38.35h1.46Z"/><path d="M144.9,44h-2.57l-.48,1.46h-1.56l2.65-7.11h1.35L147,45.46H145.4Zm-2.17-1.19h1.78l-.9-2.66Z"/><path d="M149.36,38.35l1.83,5.16L153,38.35h1.93v7.11h-1.47V43.52l.15-3.35-1.92,5.29h-1l-1.91-5.29.14,3.35v1.94h-1.46V38.35Z"/><path d="M161.88,42.07a4.41,4.41,0,0,1-.37,1.84,2.78,2.78,0,0,1-1.07,1.22,2.88,2.88,0,0,1-1.58.43,3,3,0,0,1-1.58-.42,2.83,2.83,0,0,1-1.07-1.22,4.3,4.3,0,0,1-.39-1.81v-.35a4.3,4.3,0,0,1,.38-1.85,2.86,2.86,0,0,1,1.07-1.23,3.18,3.18,0,0,1,3.16,0,2.86,2.86,0,0,1,1.07,1.23,4.29,4.29,0,0,1,.38,1.84Zm-1.49-.32a3,3,0,0,0-.4-1.7,1.29,1.29,0,0,0-1.14-.58,1.32,1.32,0,0,0-1.14.57,3,3,0,0,0-.4,1.68v.35a3,3,0,0,0,.4,1.69,1.29,1.29,0,0,0,1.15.6,1.27,1.27,0,0,0,1.13-.58,3,3,0,0,0,.4-1.69Z"/><path d="M165.4,42.86h-1.16v2.6h-1.47V38.35h2.64a3,3,0,0,1,2,.57A1.94,1.94,0,0,1,168,40.5a2.13,2.13,0,0,1-.32,1.22,2.07,2.07,0,0,1-.95.77l1.54,2.9v.07h-1.57Zm-1.16-1.19h1.18a1.18,1.18,0,0,0,.85-.28,1,1,0,0,0,.31-.77,1.07,1.07,0,0,0-.29-.79,1.19,1.19,0,0,0-.88-.29h-1.17Z"/><path d="M171.3,45.46V38.35h2.19a3.23,3.23,0,0,1,1.68.43,2.89,2.89,0,0,1,1.15,1.2,3.67,3.67,0,0,1,.42,1.77v.32a3.76,3.76,0,0,1-.41,1.77A2.87,2.87,0,0,1,175.18,45a3.22,3.22,0,0,1-1.67.43Zm1.47-5.92v4.75h.71a1.57,1.57,0,0,0,1.31-.57,2.5,2.5,0,0,0,.46-1.6v-.38a2.56,2.56,0,0,0-.45-1.64,1.57,1.57,0,0,0-1.31-.56Z"/><path d="M181.91,42.38H179.1v1.91h3.3v1.17h-4.77V38.35h4.76v1.19H179.1v1.69h2.81Z"/><path d="M189.69,42.56h-2.82v2.9h-1.46V38.35H190v1.19h-3.17v1.84h2.82Z"/><path d="M193.79,44h-2.57l-.48,1.46h-1.56l2.64-7.11h1.36l2.66,7.11h-1.55Zm-2.17-1.19h1.78l-.9-2.66Z"/><path d="M198.25,38.35l1.83,5.16,1.81-5.16h1.93v7.11h-1.47V43.52l.14-3.35-1.91,5.29h-1l-1.91-5.29.14,3.35v1.94h-1.46V38.35Z"/><path d="M206.48,45.46H205V38.35h1.46Z"/><path d="M209.14,44.29h3.11v1.17h-4.58V38.35h1.47Z"/><path d="M214.47,45.46H213V38.35h1.46Z"/><path d="M219.68,44h-2.57l-.49,1.46h-1.56l2.65-7.11h1.36l2.66,7.11h-1.56Zm-2.18-1.19h1.78l-.89-2.66Z"/></g></g></g></g></g></g></svg>