<svg xmlns="http://www.w3.org/2000/svg" viewBox="0 0 213.69 46.87"><defs><style>.cls-1{isolation:isolate;}</style></defs><g id="Layer_2" data-name="Layer 2"><g id="Layer_1-2" data-name="Layer 1"><g id="Group_23" data-name="Group 23"><path id="Path_1" data-name="Path 1" d="M24.34,7.58c1,4.8-.81,9.23-4,9.89s-6.61-2.7-7.59-7.5.8-9.23,4-9.89S23.35,2.78,24.34,7.58Z"/><path id="Path_2" data-name="Path 2" d="M11.29,18.35c1.72,4.18.78,8.53-2.1,9.71S2.58,26.82.86,22.64.08,14.11,3,12.92,9.57,14.16,11.29,18.35Z"/><path id="Path_3" data-name="Path 3" d="M32.53,7.58c-1,4.8.81,9.23,4,9.89s6.6-2.7,7.59-7.5-.81-9.23-4-9.89S33.52,2.78,32.53,7.58Z"/><path id="Path_4" data-name="Path 4" d="M45.59,18.35c-1.72,4.18-.78,8.53,2.1,9.71S54.3,26.82,56,22.64s.78-8.53-2.1-9.72S47.31,14.16,45.59,18.35Z"/><path id="Path_5" data-name="Path 5" d="M15.84,46.86a6,6,0,0,1-6.28-5.81,5.42,5.42,0,0,1,0-.57c0-5.33,7.32-21.12,19-21.12s19,15.79,19,21.12a6.06,6.06,0,0,1-5.71,6.38h-.57c-9.39,0-7.11-8-7.11-8s3.95.25,4.49-2.5a.61.61,0,0,0,.64-.58.31.31,0,0,0,0-.1c0-.68-1.36-1.85-1.25-3.07s.43-2.84-2.6-4.59-3.5-4.67-3.12-5.68A4.81,4.81,0,0,0,28.91,27s-3.38.34-4.75,4.76S21.94,46.86,15.84,46.86Z"/><g id="Group_4" data-name="Group 4"><g id="Group_2" data-name="Group 2"><g id="Group_1" data-name="Group 1"><g id="tus_patitas" data-name="tus patitas" class="cls-1"><g class="cls-1"><path d="M66.3,3.68H80v4H75.35V31.86H70.93V7.7H66.3Z"/><path d="M86.14,3.68V25.42c0,2,.89,2.73,2.29,2.73s2.3-.72,2.3-2.73V3.68h4.18V25.13c0,4.51-2.25,7.09-6.6,7.09s-6.6-2.58-6.6-7.09V3.68Z"/><path d="M103.89,3.36c4.31,0,6.52,2.57,6.52,7.08v.89h-4.19V10.16c0-2-.8-2.78-2.21-2.78s-2.21.77-2.21,2.78.88,3.58,3.78,6.12c3.7,3.26,4.87,5.59,4.87,8.81,0,4.51-2.25,7.09-6.6,7.09s-6.6-2.58-6.6-7.09V23.36h4.18v2c0,2,.89,2.73,2.3,2.73s2.29-.72,2.29-2.73-.88-3.59-3.78-6.12c-3.71-3.26-4.87-5.6-4.87-8.82C97.37,5.93,99.58,3.36,103.89,3.36Z"/><path d="M132.34,10.64v3.67c0,4.5-2.17,7-6.6,7h-2.09V31.86h-4.43V3.68h6.52C130.17,3.68,132.34,6.13,132.34,10.64ZM123.65,7.7v9.54h2.09c1.41,0,2.17-.64,2.17-2.65V10.36c0-2-.76-2.66-2.17-2.66Z"/><path d="M148.2,31.86h-4.47L143,26.74h-5.44l-.76,5.12H132.7l4.51-28.18h6.48Zm-10.1-8.94h4.26L140.27,8.67h-.08Z"/><path d="M147.43,3.68h13.69v4h-4.63V31.86h-4.43V7.7h-4.63Z"/><path d="M163.05,3.68h4.42V31.86h-4.42Z"/><path d="M169.41,3.68h13.68v4h-4.63V31.86H174V7.7h-4.62Z"/><path d="M197.82,31.86h-4.47l-.76-5.12h-5.44l-.76,5.12h-4.07l4.51-28.18h6.48Zm-10.1-8.94H192L189.89,8.67h-.08Z"/><path d="M205.83,3.36c4.31,0,6.52,2.57,6.52,7.08v.89h-4.19V10.16c0-2-.8-2.78-2.21-2.78s-2.21.77-2.21,2.78.88,3.58,3.78,6.12c3.7,3.26,4.87,5.59,4.87,8.81,0,4.51-2.25,7.09-6.6,7.09s-6.6-2.58-6.6-7.09V23.36h4.18v2c0,2,.89,2.73,2.3,2.73s2.29-.72,2.29-2.73-.88-3.59-3.78-6.12c-3.71-3.26-4.87-5.6-4.87-8.82C199.31,5.93,201.52,3.36,205.83,3.36Z"/></g></g></g></g><g id="CUIDADOS_CON_AMOR_DE_FAMILIA" data-name="CUIDADOS CON AMOR DE FAMILIA" class="cls-1"><g class="cls-1"><path d="M73.94,42.65a2.39,2.39,0,0,1-.8,1.71,2.82,2.82,0,0,1-1.91.63,2.5,2.5,0,0,1-2-.88,3.55,3.55,0,0,1-.75-2.39V41.3a4,4,0,0,1,.35-1.71,2.55,2.55,0,0,1,1-1.14,2.75,2.75,0,0,1,1.48-.39,2.8,2.8,0,0,1,1.88.62A2.59,2.59,0,0,1,74,40.44H72.56a1.14,1.14,0,0,0-1.31-1.24,1.16,1.16,0,0,0-1,.5,2.79,2.79,0,0,0-.36,1.54v.51a3,3,0,0,0,.33,1.6,1.17,1.17,0,0,0,1,.5,1.39,1.39,0,0,0,1-.29,1.34,1.34,0,0,0,.36-.91Z"/><path d="M79.79,38.15v4.44a2.27,2.27,0,0,1-.69,1.75,3.08,3.08,0,0,1-3.76,0,2.22,2.22,0,0,1-.71-1.72V38.15H76V42.6a1.32,1.32,0,0,0,.31,1,1.24,1.24,0,0,0,.88.3c.78,0,1.18-.41,1.19-1.23V38.15Z"/><path d="M82.25,44.89H80.86V38.15h1.39Z"/><path d="M83.38,44.89V38.15h2.07a3.13,3.13,0,0,1,1.59.4,2.87,2.87,0,0,1,1.1,1.14,3.53,3.53,0,0,1,.39,1.68v.31a3.49,3.49,0,0,1-.39,1.67,2.79,2.79,0,0,1-1.09,1.14,3.23,3.23,0,0,1-1.59.4Zm1.38-5.61v4.5h.68a1.5,1.5,0,0,0,1.24-.54,2.33,2.33,0,0,0,.44-1.52v-.36a2.45,2.45,0,0,0-.42-1.55,1.5,1.5,0,0,0-1.25-.53Z"/><path d="M93.18,43.5H90.75l-.46,1.39H88.81l2.51-6.74h1.29l2.52,6.74H93.65Zm-2.06-1.12h1.69L92,39.85Z"/><path d="M95.6,44.89V38.15h2.07a3.08,3.08,0,0,1,1.59.4,2.81,2.81,0,0,1,1.1,1.14,3.53,3.53,0,0,1,.39,1.68v.31a3.6,3.6,0,0,1-.38,1.67,2.85,2.85,0,0,1-1.09,1.14,3.23,3.23,0,0,1-1.59.4ZM97,39.28v4.5h.67a1.48,1.48,0,0,0,1.24-.54,2.33,2.33,0,0,0,.44-1.52v-.36a2.45,2.45,0,0,0-.42-1.55,1.5,1.5,0,0,0-1.25-.53Z"/><path d="M107.14,41.68a4.12,4.12,0,0,1-.35,1.74,2.67,2.67,0,0,1-1,1.16,2.95,2.95,0,0,1-3,0,2.66,2.66,0,0,1-1-1.15,3.92,3.92,0,0,1-.36-1.72v-.33a4,4,0,0,1,.36-1.75,2.64,2.64,0,0,1,1-1.17,3,3,0,0,1,3,0,2.7,2.7,0,0,1,1,1.17,4,4,0,0,1,.36,1.74Zm-1.41-.31a2.78,2.78,0,0,0-.38-1.61,1.22,1.22,0,0,0-1.08-.55,1.23,1.23,0,0,0-1.08.54,2.9,2.9,0,0,0-.39,1.6v.33a2.91,2.91,0,0,0,.38,1.6,1.33,1.33,0,0,0,2.17,0,2.84,2.84,0,0,0,.38-1.6Z"/><path d="M111.48,43.12a.72.72,0,0,0-.27-.6,3.59,3.59,0,0,0-1-.44,6.4,6.4,0,0,1-1.15-.47,1.87,1.87,0,0,1-1.15-1.67,1.65,1.65,0,0,1,.31-1,2,2,0,0,1,.89-.67,3.3,3.3,0,0,1,1.29-.24,3.13,3.13,0,0,1,1.29.26,2.06,2.06,0,0,1,.88.74,2,2,0,0,1,.31,1.08h-1.39a.92.92,0,0,0-.29-.72,1.22,1.22,0,0,0-.82-.26,1.28,1.28,0,0,0-.79.22.68.68,0,0,0-.29.57.65.65,0,0,0,.33.55,3.7,3.7,0,0,0,1,.42,4.22,4.22,0,0,1,1.73.88,1.76,1.76,0,0,1,.54,1.32,1.62,1.62,0,0,1-.66,1.37,3,3,0,0,1-1.79.5A3.38,3.38,0,0,1,109,44.7a2.22,2.22,0,0,1-1-.78,2,2,0,0,1-.33-1.15h1.39c0,.75.44,1.12,1.33,1.12a1.36,1.36,0,0,0,.78-.2A.67.67,0,0,0,111.48,43.12Z"/><path d="M121.15,42.65a2.39,2.39,0,0,1-.8,1.71,2.82,2.82,0,0,1-1.91.63,2.5,2.5,0,0,1-2-.88,3.55,3.55,0,0,1-.75-2.39V41.3a4,4,0,0,1,.35-1.71,2.55,2.55,0,0,1,1-1.14,2.75,2.75,0,0,1,1.48-.39,2.8,2.8,0,0,1,1.88.62,2.59,2.59,0,0,1,.82,1.76h-1.39a1.14,1.14,0,0,0-1.31-1.24,1.16,1.16,0,0,0-1,.5,2.79,2.79,0,0,0-.36,1.54v.51a3,3,0,0,0,.33,1.6,1.17,1.17,0,0,0,1,.5,1.39,1.39,0,0,0,1-.29,1.34,1.34,0,0,0,.36-.91Z"/><path d="M127.44,41.68a4.12,4.12,0,0,1-.35,1.74,2.67,2.67,0,0,1-1,1.16,2.95,2.95,0,0,1-3,0,2.66,2.66,0,0,1-1-1.15,3.92,3.92,0,0,1-.36-1.72v-.33a4,4,0,0,1,.36-1.75,2.64,2.64,0,0,1,1-1.17,3,3,0,0,1,3,0,2.7,2.7,0,0,1,1,1.17,4,4,0,0,1,.36,1.74ZM126,41.37a2.78,2.78,0,0,0-.38-1.61,1.22,1.22,0,0,0-1.08-.55,1.23,1.23,0,0,0-1.08.54,2.9,2.9,0,0,0-.39,1.6v.33a2.91,2.91,0,0,0,.38,1.6,1.33,1.33,0,0,0,2.17,0,2.84,2.84,0,0,0,.38-1.6Z"/><path d="M133.77,44.89h-1.39l-2.7-4.43v4.43h-1.39V38.15h1.39l2.71,4.45V38.15h1.38Z"/><path d="M140.83,43.5h-2.44l-.46,1.39h-1.48L139,38.15h1.29l2.53,6.74H141.3Zm-2.06-1.12h1.69l-.85-2.53Z"/><path d="M145.06,38.15,146.79,43l1.72-4.89h1.83v6.74h-1.4V43.05l.14-3.18-1.82,5h-.95l-1.82-5,.14,3.18v1.84h-1.39V38.15Z"/><path d="M156.93,41.68a4.12,4.12,0,0,1-.35,1.74,2.67,2.67,0,0,1-1,1.16,2.95,2.95,0,0,1-3,0,2.66,2.66,0,0,1-1-1.15,3.92,3.92,0,0,1-.36-1.72v-.33a4,4,0,0,1,.36-1.75,2.58,2.58,0,0,1,1-1.17,3,3,0,0,1,3,0,2.7,2.7,0,0,1,1,1.17,4,4,0,0,1,.36,1.74Zm-1.41-.31a2.86,2.86,0,0,0-.38-1.61,1.22,1.22,0,0,0-1.08-.55,1.23,1.23,0,0,0-1.08.54,2.9,2.9,0,0,0-.39,1.6v.33a2.91,2.91,0,0,0,.38,1.6,1.33,1.33,0,0,0,2.17,0,2.84,2.84,0,0,0,.38-1.6Z"/><path d="M160.27,42.43h-1.1v2.46h-1.39V38.15h2.5a2.89,2.89,0,0,1,1.85.53,1.85,1.85,0,0,1,.64,1.51,2.07,2.07,0,0,1-.3,1.15,2,2,0,0,1-.9.73L163,44.83v.06h-1.49Zm-1.1-1.13h1.12a1.13,1.13,0,0,0,.81-.27.94.94,0,0,0,.28-.73,1,1,0,0,0-.27-.75,1.12,1.12,0,0,0-.83-.27h-1.11Z"/><path d="M165.87,44.89V38.15h2.07a3.08,3.08,0,0,1,1.59.4,2.81,2.81,0,0,1,1.1,1.14,3.53,3.53,0,0,1,.39,1.68v.31a3.6,3.6,0,0,1-.38,1.67,2.85,2.85,0,0,1-1.09,1.14,3.23,3.23,0,0,1-1.59.4Zm1.39-5.61v4.5h.67a1.48,1.48,0,0,0,1.24-.54,2.39,2.39,0,0,0,.45-1.52v-.36a2.45,2.45,0,0,0-.43-1.55,1.48,1.48,0,0,0-1.25-.53Z"/><path d="M175.93,42h-2.67v1.81h3.13v1.11h-4.52V38.15h4.51v1.13h-3.12v1.6h2.67Z"/><path d="M183.3,42.14h-2.67v2.75h-1.38V38.15h4.39v1.13h-3V41h2.67Z"/><path d="M187.2,43.5h-2.44l-.46,1.39h-1.48l2.51-6.74h1.29l2.52,6.74h-1.47Zm-2.06-1.12h1.68L186,39.85Z"/><path d="M191.43,38.15,193.16,43l1.72-4.89h1.83v6.74h-1.4V43.05l.14-3.18-1.82,5h-.95l-1.82-5,.14,3.18v1.84h-1.39V38.15Z"/><path d="M199.23,44.89h-1.38V38.15h1.38Z"/><path d="M201.75,43.78h2.95v1.11h-4.34V38.15h1.39Z"/><path d="M206.81,44.89h-1.39V38.15h1.39Z"/><path d="M211.75,43.5h-2.44l-.46,1.39h-1.48l2.51-6.74h1.29l2.52,6.74h-1.48Zm-2.07-1.12h1.69l-.85-2.53Z"/></g></g></g></g></g></g></svg>